<svg xmlns="http://www.w3.org/2000/svg" viewBox="0 0 96 96" role="img" aria-labelledby="porumbesti-monogram-title">
  <title id="porumbesti-monogram-title">Porumbești P monogram</title>
  <defs>
    <linearGradient id="porumbesti-monogram-gradient" x1="10" y1="8" x2="88" y2="90" gradientUnits="userSpaceOnUse">
      <stop stop-color="#7a271a"/>
      <stop offset=".42" stop-color="#b85c42"/>
      <stop offset="1" stop-color="#123b5d"/>
    </linearGradient>
    <linearGradient id="porumbesti-monogram-shine" x1="21" y1="18" x2="72" y2="78" gradientUnits="userSpaceOnUse">
      <stop stop-color="#ffffff" stop-opacity=".22"/>
      <stop offset="1" stop-color="#ffffff" stop-opacity="0"/>
    </linearGradient>
  </defs>
  <rect x="2" y="2" width="92" height="92" rx="15" fill="url(#porumbesti-monogram-gradient)"/>
  <path d="M2 23 31 2h25L18 94H2V23Z" fill="url(#porumbesti-monogram-shine)"/>
  <path d="M94 14 61 2h33v12ZM94 94H70l24-31v31Z" fill="#071f34" opacity=".2"/>
  <rect x="3" y="3" width="90" height="90" rx="14" fill="none" stroke="#ffffff" stroke-opacity=".28" stroke-width="2"/>
  <path fill="#ffffff" fill-rule="evenodd" d="M31 74V22h20.5C64.5 22 72 29 72 40.5S64.5 59 51.5 59H43v15H31Zm12-26h7.5c6.2 0 9.2-2.6 9.2-7.5S56.7 33 50.5 33H43v15Z"/>
  <path d="M22 81h52" fill="none" stroke="#d1a146" stroke-linecap="round" stroke-width="4"/>
</svg>
